<mxfile host="Electron" modified="2023-06-28T14:31:13.426Z" agent="Mozilla/5.0 (Windows NT 10.0; Win64; x64) AppleWebKit/537.36 (KHTML, like Gecko) draw.io/21.4.0 Chrome/112.0.5615.204 Electron/24.5.1 Safari/537.36" etag="bGX7rkkRnxhaSGxdRI6-" version="21.4.0" type="device">
  <diagram name="Page-1" id="4I2zJMP6fPbmH2adfHKz">
    <mxGraphModel dx="479" dy="276" grid="1" gridSize="10" guides="1" tooltips="1" connect="1" arrows="1" fold="1" page="1" pageScale="1" pageWidth="827" pageHeight="1169" math="0" shadow="0">
      <root>
        <mxCell id="0" />
        <mxCell id="1" parent="0" />
        <mxCell id="tfoxWXDdU5jyKTtbno_l-1" value="" style="rounded=0;whiteSpace=wrap;html=1;movable=0;resizable=0;rotatable=0;deletable=0;editable=0;locked=1;connectable=0;" parent="1" vertex="1">
          <mxGeometry x="320" y="80" width="120" height="80" as="geometry" />
        </mxCell>
        <mxCell id="tfoxWXDdU5jyKTtbno_l-2" value="" style="endArrow=classic;html=1;rounded=0;entryX=0;entryY=0.5;entryDx=0;entryDy=0;" parent="1" target="tfoxWXDdU5jyKTtbno_l-1" edge="1">
          <mxGeometry width="50" height="50" relative="1" as="geometry">
            <mxPoint x="280" y="120" as="sourcePoint" />
            <mxPoint x="290" y="90" as="targetPoint" />
          </mxGeometry>
        </mxCell>
        <mxCell id="tfoxWXDdU5jyKTtbno_l-7" value="Gain/Loss" style="text;html=1;strokeColor=none;fillColor=none;align=center;verticalAlign=middle;whiteSpace=wrap;rounded=0;fontFamily=UGent Panno Text;fontSize=22;" parent="1" vertex="1">
          <mxGeometry x="350" y="80" width="60" height="30" as="geometry" />
        </mxCell>
        <mxCell id="HlztSkazpgdC9D1p53wl-1" value="" style="endArrow=classic;html=1;rounded=0;entryX=0;entryY=0.5;entryDx=0;entryDy=0;" parent="1" edge="1">
          <mxGeometry width="50" height="50" relative="1" as="geometry">
            <mxPoint x="440" y="119.86" as="sourcePoint" />
            <mxPoint x="480" y="119.86" as="targetPoint" />
          </mxGeometry>
        </mxCell>
        <mxCell id="HlztSkazpgdC9D1p53wl-3" value="" style="endArrow=none;html=1;rounded=0;fillColor=#dae8fc;strokeColor=#6c8ebf;" parent="1" edge="1">
          <mxGeometry width="50" height="50" relative="1" as="geometry">
            <mxPoint x="330" y="150" as="sourcePoint" />
            <mxPoint x="420" y="150" as="targetPoint" />
          </mxGeometry>
        </mxCell>
        <mxCell id="HlztSkazpgdC9D1p53wl-4" value="" style="endArrow=none;dashed=1;html=1;rounded=0;fillColor=#dae8fc;strokeColor=#6c8ebf;" parent="1" edge="1">
          <mxGeometry width="50" height="50" relative="1" as="geometry">
            <mxPoint x="330" y="120" as="sourcePoint" />
            <mxPoint x="420" y="120" as="targetPoint" />
          </mxGeometry>
        </mxCell>
        <mxCell id="HlztSkazpgdC9D1p53wl-5" value="" style="endArrow=classic;html=1;rounded=0;" parent="1" edge="1">
          <mxGeometry width="50" height="50" relative="1" as="geometry">
            <mxPoint x="430" y="150" as="sourcePoint" />
            <mxPoint x="430" y="120" as="targetPoint" />
          </mxGeometry>
        </mxCell>
        <mxCell id="JRNSjsp5GEAHOhTlsu9E-1" value="&lt;font color=&quot;#e0a458&quot; face=&quot;tabler-icons&quot;&gt;&lt;/font&gt; input" style="text;html=1;strokeColor=none;fillColor=none;align=center;verticalAlign=middle;whiteSpace=wrap;rounded=0;fontFamily=UGent Panno Text;fontSize=16;" vertex="1" parent="1">
          <mxGeometry x="220" y="110" width="60" height="20" as="geometry" />
        </mxCell>
        <mxCell id="JRNSjsp5GEAHOhTlsu9E-2" value="&lt;font color=&quot;#e0a458&quot; face=&quot;tabler-icons&quot;&gt;&lt;/font&gt;&amp;nbsp;output" style="text;html=1;strokeColor=none;fillColor=none;align=center;verticalAlign=middle;whiteSpace=wrap;rounded=0;fontFamily=UGent Panno Text;fontSize=16;" vertex="1" parent="1">
          <mxGeometry x="480" y="110" width="60" height="20" as="geometry" />
        </mxCell>
      </root>
    </mxGraphModel>
  </diagram>
</mxfile>
